<svg width="20" height="18" viewBox="0 0 20 18" fill="none" xmlns="http://www.w3.org/2000/svg">
<path d="M14.3213 0.5H14.3242C14.9197 0.498501 15.5106 0.601849 16.0703 0.805664L16.3076 0.899414C16.8578 1.13163 17.3635 1.45929 17.8027 1.86719L17.9873 2.04688C18.8917 2.97539 19.4266 4.20838 19.4932 5.50879L19.5 5.77051C19.5035 7.07904 19.032 8.33849 18.1826 9.31152L18.0078 9.50195L10.2539 17.3936C10.186 17.4624 10.0957 17.5 10.0029 17.5C9.91006 17.5 9.81987 17.4624 9.75195 17.3936H9.75098L1.99414 9.49902C1.03699 8.50653 0.5 7.17118 0.5 5.7793C0.500004 4.38767 1.0363 3.05207 1.99316 2.05957L1.99414 2.06055C2.96468 1.07577 4.27917 0.523449 5.64844 0.523438C6.93217 0.523438 8.16801 1.00874 9.11719 1.88086L9.30273 2.06055L9.62402 2.38574L9.98633 2.75391L10.3418 2.37988L10.6582 2.0459L10.6592 2.04688C11.0789 1.61631 11.5684 1.26403 12.1055 1.00488L12.3379 0.899414C12.8879 0.667258 13.473 0.534359 14.0664 0.505859L14.3213 0.5Z" stroke="black"/>
</svg>
